<svg width="143" height="52" viewBox="0 0 143 52" fill="none" xmlns="http://www.w3.org/2000/svg">
<path d="M36.288 18.1604L19.9313 17.5889L19.7621 22.4353L31.3481 22.8402C30.5423 29.6356 24.7625 32.3148 19.4239 32.1282C12.5707 31.8888 6.81388 26.3045 7.07684 18.7698C7.33319 11.4244 13.2095 5.98133 20.3277 6.23005C25.8178 6.42188 28.9511 10.0569 28.9511 10.0569L32.4816 6.65472C32.4816 6.65472 28.2966 1.65614 20.3454 1.37831C10.236 1.02508 2.0998 9.30822 1.77869 18.5089C1.46288 27.5581 8.53822 36.6381 19.367 37.0165C28.9084 37.3499 36.1037 31.043 36.4407 21.388C36.5121 19.3434 36.288 18.1604 36.288 18.1604Z" fill="white"/>
<path d="M49.7759 15.1058C43.0742 14.8716 38.0819 19.9665 37.8692 26.0625C37.6525 32.272 42.1233 37.7733 49.0522 38.0155C55.3374 38.2351 60.6167 33.6051 60.8466 27.017C61.1501 19.4079 55.3039 15.299 49.7759 15.1058ZM49.6944 19.6141C52.9884 19.7292 56.0386 22.4894 55.8879 26.8058C55.7412 31.0086 52.54 33.6641 49.2081 33.5476C45.5354 33.4193 42.7596 30.4033 42.901 26.352C43.0411 22.3385 45.9838 19.4845 49.6944 19.6141Z" fill="white"/>
<path d="M74.8428 15.9817C68.1411 15.7475 63.1488 20.8424 62.9361 26.9383C62.7194 33.1478 67.1902 38.6492 74.1191 38.8913C80.4043 39.1109 85.6836 34.4809 85.9135 27.8928C86.1791 20.2824 80.3329 16.1735 74.8428 15.9817ZM74.7613 20.49C78.0553 20.6051 81.1055 23.3653 80.9548 27.6816C80.8081 31.8844 77.6069 34.5399 74.275 34.4235C70.6023 34.2952 67.8265 31.2792 67.9679 27.2279C68.0701 23.2131 71.0507 20.3603 74.7613 20.49Z" fill="white"/>
<path d="M99.3752 16.8389C93.2036 16.6232 88.2074 21.8317 87.996 27.8898C87.7555 34.7808 93.1993 39.558 98.5 39.7432C101.756 39.857 103.543 38.6305 104.883 37.161L104.804 39.4328C104.666 43.3705 102.198 45.6725 98.5629 45.5455C95.0795 45.4238 93.3912 42.7491 92.8369 41.2513L88.3801 42.9531C89.8175 46.3014 92.8398 49.8567 98.4435 50.0525C104.577 50.2668 109.369 46.5675 109.651 38.5028L110.37 17.9054L105.561 17.7374L105.494 19.6684C104.071 18.0644 102.063 16.9328 99.3752 16.8389ZM99.6723 21.3604C102.701 21.4663 105.716 24.1494 105.563 28.5415C105.407 33.0093 102.216 35.3619 99.1495 35.2547C95.8554 35.1397 92.9189 32.3834 93.0669 28.1428C93.1824 23.7494 96.454 21.248 99.6723 21.3604Z" fill="white"/>
<path d="M131.711 17.9688C125.918 17.7664 120.872 22.215 120.635 29.0303C120.382 36.2621 125.685 40.7311 131.478 40.9335C136.325 41.1028 139.408 38.557 141.233 36.2325L137.35 33.4432C136.272 34.9977 134.476 36.4892 131.637 36.39C128.418 36.2775 127.004 34.4464 126.155 32.7108L141.749 26.887L141.019 25.0039C139.67 21.2796 136.292 18.1289 131.711 17.9688ZM131.785 22.3688C133.867 22.4416 135.344 23.5925 135.94 24.9781L125.529 28.898C125.191 25.5502 128.453 22.2524 131.785 22.3688Z" fill="white"/>
<path d="M119.165 6.00579L114.129 5.82983L112.95 39.6035L117.986 39.7794L119.165 6.00579Z" fill="white"/>
</svg>
