<svg width="156" height="49" viewBox="0 0 156 49" fill="none" xmlns="http://www.w3.org/2000/svg">
<path d="M58.7791 17.4237L60.9396 17.4992L63.8035 26.7033L67.3021 17.7215L69.4627 17.797L64.5563 30.0255L62.821 29.9648L58.7791 17.4237ZM57.6137 17.383L59.7658 17.4582L59.8477 26.3351L59.7248 29.8567L57.1815 29.7678L57.6137 17.383ZM68.476 17.7625L70.6365 17.838L70.2043 30.2228L67.6525 30.1337L67.7754 26.6122L68.476 17.7625ZM77.3282 28.3937L77.4713 24.2938C77.4816 23.9989 77.4422 23.7449 77.3532 23.5317C77.2643 23.3129 77.1198 23.1403 76.9198 23.0141C76.7255 22.8881 76.4696 22.8195 76.152 22.8084C75.8798 22.7989 75.6428 22.8389 75.441 22.9284C75.2393 23.0122 75.0816 23.1401 74.9677 23.3121C74.854 23.4785 74.7931 23.6779 74.785 23.9104L72.3353 23.8248C72.3489 23.4335 72.4526 23.0653 72.6463 22.72C72.8401 22.3748 73.1146 22.0749 73.4698 21.8205C73.8252 21.5604 74.2437 21.3621 74.7254 21.2256C75.2128 21.0894 75.7542 21.0316 76.3496 21.0524C77.0641 21.0774 77.695 21.2187 78.2425 21.4763C78.7899 21.7339 79.2141 22.1064 79.515 22.5938C79.8216 23.0814 79.9624 23.6825 79.9375 24.397L79.8 28.3353C79.7824 28.84 79.7992 29.2551 79.8503 29.5805C79.9016 29.9002 79.9826 30.1813 80.0934 30.4236L80.0883 30.5682L77.6131 30.4817C77.5027 30.228 77.4228 29.913 77.3735 29.5365C77.3301 29.1546 77.315 28.7737 77.3282 28.3937ZM77.7747 24.875L77.7433 26.2621L76.3738 26.2142C76.0506 26.203 75.7686 26.23 75.5279 26.2954C75.2871 26.3608 75.0878 26.4589 74.93 26.5896C74.7723 26.7147 74.6535 26.8638 74.5737 27.0371C74.4995 27.2105 74.4588 27.4021 74.4514 27.6119C74.4441 27.8217 74.4857 28.0134 74.5761 28.1869C74.6668 28.3547 74.8012 28.49 74.9793 28.5927C75.1576 28.6898 75.3686 28.7426 75.6125 28.7511C75.9811 28.764 76.3041 28.7014 76.5814 28.5635C76.8587 28.4256 77.0749 28.2515 77.2298 28.0411C77.3905 27.831 77.477 27.6296 77.4894 27.437L78.0996 28.4973C78.0008 28.7267 77.8676 28.9633 77.7001 29.2073C77.5383 29.4514 77.3345 29.6799 77.0886 29.8928C76.8429 30.0999 76.5503 30.2686 76.2108 30.3986C75.8714 30.523 75.4721 30.5772 75.0128 30.5612C74.4287 30.5408 73.9025 30.406 73.4343 30.1568C72.972 29.9022 72.6091 29.5631 72.3457 29.1394C72.0881 28.7103 71.9686 28.2292 71.9872 27.6961C72.0041 27.2141 72.1097 26.7891 72.3043 26.4212C72.4988 26.0533 72.7763 25.7479 73.1368 25.505C73.5031 25.2566 73.9551 25.0765 74.4927 24.9647C75.0305 24.8473 75.651 24.8008 76.3542 24.8254L77.7747 24.875ZM84.2623 23.4665L84.0096 30.7052L81.5599 30.6196L81.8811 21.416L84.1777 21.4963L84.2623 23.4665ZM83.8242 25.7677L83.1608 25.7445C83.1845 25.064 83.2938 24.4547 83.4886 23.9164C83.6836 23.3725 83.9466 22.9133 84.2776 22.5388C84.6088 22.1586 84.9963 21.8741 85.4401 21.6852C85.8897 21.4908 86.3867 21.4031 86.9311 21.4222C87.3621 21.4372 87.754 21.5134 88.1069 21.6506C88.4598 21.7879 88.7591 21.997 89.0048 22.2781C89.2561 22.5594 89.4421 22.9265 89.5625 23.3792C89.6887 23.8322 89.7404 24.3819 89.7179 25.0283L89.513 30.8975L87.0463 30.8113L87.2514 24.9336C87.2657 24.5253 87.22 24.2058 87.1145 23.975C87.009 23.7442 86.8473 23.5796 86.6293 23.4811C86.4172 23.3772 86.1523 23.3197 85.8348 23.3086C85.5059 23.2971 85.2172 23.3523 84.9688 23.4742C84.7261 23.5963 84.5213 23.7708 84.3544 23.9978C84.1934 24.2193 84.0678 24.4817 83.9778 24.7852C83.8877 25.0886 83.8365 25.4161 83.8242 25.7677ZM97.5237 21.9626L99.7438 22.0402L99.4333 30.9375C99.404 31.7768 99.192 32.4819 98.7974 33.0529C98.4082 33.6298 97.8766 34.0569 97.2027 34.3343C96.5285 34.6173 95.7519 34.7435 94.873 34.7128C94.4874 34.6993 94.0809 34.634 93.6535 34.5169C93.2317 34.4 92.829 34.2269 92.4452 33.9977C92.0671 33.7688 91.7534 33.4853 91.504 33.1473L92.6348 31.739C92.9068 32.0778 93.2268 32.3445 93.5947 32.539C93.9625 32.7392 94.3732 32.8473 94.8268 32.8631C95.2691 32.8786 95.6463 32.8094 95.9582 32.6557C96.27 32.5076 96.5135 32.2805 96.6889 31.9743C96.864 31.6739 96.9592 31.3053 96.9744 30.8687L97.2113 24.0808L97.5237 21.9626ZM91.1668 26.4586L91.1731 26.28C91.1976 25.5768 91.3049 24.9418 91.4951 24.375C91.691 23.8028 91.955 23.3152 92.287 22.9123C92.6247 22.5097 93.0272 22.2029 93.4944 21.9922C93.9617 21.7814 94.4845 21.6861 95.0629 21.7063C95.6753 21.7277 96.1846 21.8591 96.5906 22.1003C96.9967 22.3416 97.3256 22.6768 97.5775 23.1057C97.8296 23.529 98.0194 24.0267 98.1471 24.5989C98.2806 25.1657 98.3782 25.7851 98.4399 26.4572L98.4263 26.8485C98.3188 27.4863 98.1705 28.0773 97.9812 28.6214C97.7918 29.1655 97.551 29.6397 97.2587 30.044C96.9666 30.4426 96.6096 30.748 96.1877 30.9604C95.7715 31.173 95.2799 31.2693 94.7128 31.2495C94.1457 31.2297 93.6366 31.0955 93.1854 30.847C92.7398 30.5986 92.3628 30.259 92.0542 29.8281C91.7456 29.3971 91.5133 28.8951 91.3573 28.3218C91.207 27.7488 91.1435 27.1278 91.1668 26.4586ZM93.6228 26.3656L93.6166 26.5442C93.6033 26.9241 93.6278 27.2799 93.6901 27.6113C93.7523 27.9428 93.8555 28.2388 93.9997 28.4993C94.1498 28.7544 94.3386 28.9569 94.5662 29.1068C94.7996 29.2512 95.0779 29.329 95.4011 29.3403C95.8491 29.356 96.2182 29.2752 96.5082 29.098C96.7985 28.9151 97.0203 28.6588 97.1738 28.3292C97.3272 27.9996 97.4229 27.6169 97.4608 27.181L97.4997 26.0667C97.5008 25.7091 97.4638 25.387 97.3887 25.1005C97.3137 24.8083 97.2032 24.5575 97.0572 24.348C96.9112 24.1385 96.7183 23.9727 96.4784 23.8508C96.2386 23.7289 95.9513 23.6621 95.6168 23.6504C95.2935 23.6391 95.0103 23.703 94.7669 23.8421C94.5295 23.9758 94.327 24.1646 94.1595 24.4085C93.9977 24.6527 93.8712 24.9435 93.7799 25.281C93.6888 25.6128 93.6365 25.9743 93.6228 26.3656ZM105.191 29.6994C105.492 29.7099 105.76 29.6626 105.997 29.5573C106.233 29.4463 106.42 29.2882 106.558 29.0829C106.702 28.8722 106.781 28.6223 106.797 28.3333L109.102 28.4139C109.074 29.0601 108.881 29.6297 108.523 30.1225C108.166 30.6096 107.695 30.9878 107.112 31.257C106.53 31.5205 105.884 31.6399 105.175 31.6151C104.461 31.5901 103.841 31.4492 103.316 31.1925C102.797 30.9359 102.369 30.5916 102.032 30.1597C101.696 29.7221 101.449 29.2195 101.293 28.652C101.137 28.0788 101.07 27.4689 101.093 26.8225L101.101 26.5758C101.124 25.9237 101.233 25.32 101.429 24.7647C101.624 24.2038 101.905 23.7196 102.271 23.3123C102.638 22.8993 103.089 22.5829 103.625 22.3632C104.16 22.1434 104.782 22.0459 105.491 22.0707C106.246 22.097 106.901 22.2647 107.458 22.5737C108.021 22.883 108.454 23.3126 108.759 23.8626C109.069 24.4071 109.214 25.0453 109.194 25.777L106.889 25.6964C106.894 25.39 106.839 25.1099 106.723 24.856C106.612 24.6023 106.443 24.3977 106.216 24.2422C105.995 24.0811 105.717 23.9948 105.382 23.9831C105.025 23.9706 104.73 24.0369 104.498 24.1821C104.266 24.3216 104.083 24.5196 103.949 24.7761C103.815 25.027 103.717 25.3159 103.655 25.643C103.598 25.9647 103.564 26.3041 103.551 26.6614L103.543 26.9081C103.53 27.2653 103.541 27.6092 103.575 27.9397C103.609 28.2702 103.683 28.5652 103.799 28.8247C103.921 29.0845 104.092 29.292 104.314 29.4474C104.536 29.6027 104.828 29.6868 105.191 29.6994ZM110.178 27.1059L110.185 26.9272C110.208 26.2524 110.326 25.6349 110.539 25.0745C110.752 24.5085 111.05 24.0221 111.433 23.6154C111.816 23.2086 112.281 22.8984 112.828 22.6847C113.375 22.4654 113.997 22.3679 114.695 22.3923C115.392 22.4166 116.009 22.5574 116.545 22.8146C117.082 23.0661 117.527 23.4082 117.881 23.8407C118.24 24.2734 118.506 24.7795 118.679 25.359C118.852 25.9328 118.927 26.5571 118.903 27.2319L118.897 27.4105C118.874 28.0797 118.756 28.6972 118.543 29.2632C118.33 29.8236 118.03 30.3099 117.64 30.7221C117.257 31.1288 116.792 31.439 116.245 31.6527C115.698 31.8664 115.076 31.9611 114.379 31.9367C113.681 31.9123 113.064 31.7744 112.528 31.5228C111.998 31.2715 111.552 30.9295 111.193 30.4968C110.839 30.0586 110.576 29.5526 110.403 28.9788C110.23 28.3993 110.155 27.775 110.178 27.1059ZM112.634 27.0128L112.628 27.1915C112.615 27.5771 112.636 27.9384 112.693 28.2753C112.749 28.6123 112.846 28.9109 112.985 29.1712C113.129 29.4261 113.321 29.6287 113.56 29.779C113.799 29.9292 114.094 30.0105 114.446 30.0228C114.786 30.0347 115.08 29.974 115.329 29.8408C115.578 29.7075 115.78 29.5187 115.937 29.2744C116.093 29.0243 116.211 28.7332 116.291 28.401C116.376 28.069 116.425 27.7102 116.439 27.3246L116.445 27.146C116.458 26.7717 116.434 26.4189 116.371 26.0874C116.315 25.7504 116.215 25.4517 116.071 25.1912C115.932 24.9251 115.744 24.7142 115.505 24.5582C115.266 24.4022 114.974 24.3182 114.628 24.3061C114.282 24.2941 113.985 24.3575 113.736 24.4964C113.492 24.6355 113.29 24.8328 113.127 25.0883C112.971 25.3383 112.853 25.6295 112.773 25.9617C112.694 26.2882 112.648 26.6386 112.634 27.0128ZM125.751 30.1538L126.137 19.0959L128.604 19.1821L128.148 32.2475L125.927 32.1699L125.751 30.1538ZM120.019 27.4668L120.026 27.2881C120.05 26.585 120.152 25.9498 120.331 25.3826C120.51 24.8097 120.759 24.3217 121.08 23.9184C121.401 23.5151 121.789 23.2079 122.245 22.9967C122.701 22.7856 123.215 22.69 123.788 22.71C124.327 22.7288 124.793 22.8587 125.188 23.0996C125.588 23.3407 125.923 23.676 126.192 24.1055C126.467 24.5296 126.682 25.0282 126.838 25.6015C126.994 26.169 127.1 26.7887 127.156 27.4606L127.143 27.8519C127.041 28.4899 126.893 29.0809 126.698 29.6248C126.503 30.1687 126.253 30.6426 125.95 31.0465C125.652 31.4449 125.295 31.7503 124.879 31.9629C124.462 32.1755 123.982 32.2722 123.438 32.2532C122.865 32.2332 122.359 32.0991 121.919 31.851C121.485 31.603 121.122 31.2639 120.83 30.8335C120.544 30.4034 120.332 29.902 120.193 29.3294C120.054 28.7568 119.996 28.1359 120.019 27.4668ZM122.475 27.3737L122.469 27.5524C122.456 27.9323 122.472 28.2877 122.517 28.6186C122.568 28.9497 122.657 29.2452 122.784 29.5051C122.917 29.7596 123.092 29.9616 123.308 30.1111C123.53 30.2551 123.803 30.3327 124.126 30.344C124.546 30.3587 124.895 30.2772 125.174 30.0996C125.453 29.9163 125.669 29.6598 125.822 29.3302C125.981 29.0008 126.08 28.6182 126.118 28.1823L126.157 27.068C126.152 26.7102 126.112 26.388 126.037 26.1015C125.968 25.8095 125.857 25.5587 125.706 25.349C125.56 25.1395 125.372 24.974 125.144 24.8524C124.921 24.7311 124.654 24.665 124.342 24.6541C124.024 24.643 123.749 24.7072 123.517 24.8467C123.286 24.9805 123.095 25.1697 122.944 25.4143C122.799 25.659 122.687 25.9504 122.607 26.2882C122.533 26.6206 122.489 26.9824 122.475 27.3737ZM132.968 23.2011L132.647 32.4047L130.189 32.3188L130.51 23.1152L132.968 23.2011ZM130.441 20.7112C130.453 20.3539 130.588 20.0634 130.846 19.8396C131.104 19.6158 131.442 19.5113 131.862 19.5259C132.276 19.5404 132.603 19.6682 132.845 19.9094C133.092 20.1509 133.209 20.4502 133.197 20.8075C133.184 21.1647 133.046 21.4551 132.783 21.6787C132.526 21.9025 132.19 22.0071 131.776 21.9927C131.356 21.978 131.026 21.8501 130.784 21.6089C130.543 21.3676 130.428 21.0684 130.441 20.7112ZM137.323 25.3206L137.07 32.5592L134.621 32.4736L134.942 23.2701L137.239 23.3503L137.323 25.3206ZM136.885 27.6217L136.222 27.5985C136.245 26.9181 136.355 26.3087 136.549 25.7705C136.744 25.2265 137.007 24.7673 137.338 24.3928C137.67 24.0126 138.057 23.7281 138.501 23.5392C138.95 23.3448 139.448 23.2572 139.992 23.2762C140.423 23.2912 140.815 23.3674 141.168 23.5046C141.521 23.6419 141.82 23.851 142.066 24.1322C142.317 24.4135 142.503 24.7805 142.623 25.2332C142.749 25.6862 142.801 26.2359 142.779 26.8823L142.574 32.7515L140.107 32.6653L140.312 26.7876C140.326 26.3793 140.281 26.0598 140.175 25.829C140.07 25.5982 139.908 25.4336 139.69 25.3351C139.478 25.2312 139.213 25.1737 138.896 25.1626C138.567 25.1511 138.278 25.2063 138.03 25.3282C137.787 25.4503 137.582 25.6249 137.415 25.8518C137.254 26.0733 137.129 26.3357 137.039 26.6392C136.948 26.9426 136.897 27.2701 136.885 27.6217ZM150.585 23.8166L152.805 23.8942L152.494 32.7916C152.465 33.6308 152.253 34.336 151.858 34.907C151.469 35.4838 150.937 35.911 150.263 36.1883C149.589 36.4714 148.813 36.5975 147.934 36.5668C147.548 36.5533 147.142 36.488 146.714 36.3709C146.293 36.254 145.89 36.0809 145.506 35.8518C145.128 35.6228 144.814 35.3393 144.565 35.0013L145.696 33.593C145.968 33.9318 146.288 34.1985 146.656 34.393C147.023 34.5933 147.434 34.7013 147.888 34.7171C148.33 34.7326 148.707 34.6634 149.019 34.5097C149.331 34.3616 149.574 34.1345 149.75 33.8284C149.925 33.5279 150.02 33.1593 150.035 32.7227L150.272 25.9348L150.585 23.8166ZM144.228 28.3126L144.234 28.134C144.258 27.4308 144.366 26.7959 144.556 26.2291C144.752 25.6568 145.016 25.1692 145.348 24.7663C145.686 24.3637 146.088 24.057 146.555 23.8462C147.022 23.6354 147.545 23.5401 148.124 23.5603C148.736 23.5817 149.245 23.7131 149.651 23.9544C150.057 24.1957 150.386 24.5308 150.638 24.9597C150.89 25.383 151.08 25.8807 151.208 26.453C151.341 27.0197 151.439 27.6392 151.501 28.3113L151.487 28.7025C151.38 29.3404 151.231 29.9313 151.042 30.4754C150.853 31.0196 150.612 31.4937 150.32 31.898C150.027 32.2966 149.67 32.6021 149.249 32.8144C148.832 33.027 148.341 33.1234 147.774 33.1035C147.207 33.0837 146.697 32.9495 146.246 32.701C145.801 32.4526 145.424 32.113 145.115 31.6821C144.806 31.2512 144.574 30.7491 144.418 30.1759C144.268 29.6029 144.204 28.9818 144.228 28.3126ZM146.684 28.2196L146.677 28.3982C146.664 28.7782 146.689 29.1339 146.751 29.4654C146.813 29.7968 146.916 30.0928 147.061 30.3534C147.211 30.6084 147.399 30.8109 147.627 30.9608C147.86 31.1052 148.139 31.1831 148.462 31.1944C148.91 31.21 149.279 31.1292 149.569 30.952C149.859 30.7691 150.081 30.5128 150.235 30.1832C150.388 29.8536 150.484 29.4709 150.522 29.035L150.561 27.9207C150.562 27.5631 150.525 27.241 150.449 26.9545C150.374 26.6623 150.264 26.4115 150.118 26.202C149.972 25.9925 149.779 25.8268 149.539 25.7048C149.299 25.5829 149.012 25.5161 148.678 25.5044C148.354 25.4931 148.071 25.557 147.828 25.6961C147.59 25.8298 147.388 26.0186 147.22 26.2625C147.059 26.5067 146.932 26.7975 146.841 27.135C146.75 27.4668 146.697 27.8283 146.684 28.2196Z" fill="white"/>
<path d="M45.8259 2.00492L2.24179 0.482026C2.0938 0.476855 1.96939 0.594212 1.96416 0.744167L0.490606 42.9662C0.485373 43.1161 0.601296 43.2419 0.74929 43.247L44.3334 44.7699C44.4814 44.7751 44.6051 44.6577 44.6103 44.5078L46.0839 2.28577C46.0891 2.13582 45.9739 2.01009 45.8259 2.00492Z" fill="white"/>
<path d="M13.3081 10.2904L12.4725 34.2327L13.3081 10.2904Z" fill="#504CFF"/>
<path d="M13.3081 10.2904L12.4725 34.2327" stroke="#504CFF" stroke-width="3.83704"/>
<path d="M20.4346 10.5394L20.0184 22.4653L20.4346 10.5394Z" fill="#504CFF"/>
<path d="M20.4346 10.5394L20.0184 22.4653" stroke="#504CFF" stroke-width="3.82976"/>
<path d="M25.8589 10.731L25.7175 14.7818L32.5149 15.0193L37.0876 25.4533L41.5275 25.6085L34.9756 11.0495L25.8589 10.731Z" fill="#504CFF"/>
<path d="M27.5884 19.2438L27.0308 35.2199L27.5884 19.2438Z" fill="#504CFF"/>
<path d="M27.5884 19.2438L27.0308 35.2199" stroke="#504CFF" stroke-width="4.43264"/>
</svg>
